<?xml version="1.0" standalone="no"?>
<!DOCTYPE svg PUBLIC "-//W3C//DTD SVG 20010904//EN"
 "http://www.w3.org/TR/2001/REC-SVG-20010904/DTD/svg10.dtd">
<svg version="1.0" xmlns="http://www.w3.org/2000/svg"
 width="1024.000000pt" height="1024.000000pt" viewBox="0 0 1024.000000 1024.000000"
 preserveAspectRatio="xMidYMid meet">
<metadata>
Created by potrace 1.16, written by Peter Selinger 2001-2019
</metadata>
<g transform="translate(0.000000,1024.000000) scale(0.100000,-0.100000)"
fill="#000000" stroke="none">
<path d="M2681 8500 c-101 -24 -151 -139 -100 -229 15 -27 157 -139 562 -443
650 -488 1357 -1024 1374 -1041 10 -10 5 -18 -25 -37 -796 -518 -1759 -1158
-1802 -1197 -31 -28 -69 -75 -85 -105 l-30 -53 0 -410 0 -410 26 -55 c37 -80
81 -125 157 -162 l67 -33 1645 0 1645 0 65 31 c71 34 63 28 795 589 280 215
534 415 566 446 31 31 69 83 85 115 l29 59 3 430 c3 451 1 486 -41 551 -14 22
-158 139 -377 307 -195 149 -476 366 -625 482 -262 205 -656 509 -1170 904
-247 189 -328 240 -415 260 -54 13 -2297 13 -2349 1z m2360 -213 c39 -20 354
-260 1339 -1021 299 -231 429 -332 445 -347 5 -5 -429 -9 -1061 -9 l-1070 0
-134 103 c-74 56 -481 365 -905 686 -423 321 -777 590 -785 597 -12 12 151 14
1056 14 l1071 0 44 -23z m2079 -1645 c-19 -15 -241 -187 -495 -382 -253 -196
-541 -419 -640 -498 l-180 -142 -1338 -2 c-735 -2 -1336 0 -1335 4 3 7 397
269 803 533 154 100 395 257 535 349 l254 166 1216 0 1215 -1 -35 -27z m-1622
-1477 c163 -69 163 -301 0 -370 -201 -83 -370 171 -215 325 58 59 140 76 215
45z"/>
<path d="M4770 6480 c-30 -30 -27 -83 6 -109 26 -21 33 -21 794 -21 761 0 768
0 794 21 34 27 36 77 3 107 l-23 22 -777 0 c-764 0 -777 0 -797 -20z"/>
<path d="M4345 6195 c-33 -32 -33 -78 0 -111 l24 -24 757 2 756 3 19 24 c26
32 24 77 -6 106 l-24 25 -751 0 -751 0 -24 -25z"/>
<path d="M3939 5929 c-26 -10 -49 -45 -49 -75 0 -8 11 -26 25 -39 l24 -25 686
0 686 0 24 25 c31 30 32 56 1 92 l-24 28 -674 2 c-413 1 -683 -2 -699 -8z"/>
<path d="M3227 3831 c-233 -51 -438 -217 -537 -434 -71 -156 -102 -374 -82
-580 32 -335 172 -566 423 -697 131 -68 209 -85 394 -85 135 0 172 4 238 23
223 64 392 202 488 397 75 154 93 247 93 485 1 233 -15 312 -96 480 -45 93
-61 115 -147 200 -82 82 -110 103 -191 142 -130 63 -199 79 -360 84 -107 3
-153 0 -223 -15z m294 -285 c87 -19 141 -47 206 -109 99 -93 156 -231 172
-411 15 -174 -7 -322 -65 -443 -98 -205 -294 -299 -513 -248 -89 21 -153 59
-216 127 -100 108 -143 232 -152 443 -4 107 -1 147 15 227 64 307 283 471 553
414z"/>
<path d="M5136 3835 c-182 -38 -281 -90 -401 -210 -105 -105 -146 -169 -191
-303 -45 -132 -57 -211 -57 -387 0 -171 17 -280 64 -411 84 -232 271 -401 520
-470 91 -26 356 -26 449 -1 233 64 402 223 469 441 12 38 20 70 19 71 -4 3
-289 35 -309 35 -9 0 -25 -22 -39 -52 -34 -75 -108 -150 -183 -184 -57 -27
-71 -29 -177 -29 -110 0 -119 2 -181 32 -129 64 -230 206 -265 373 -20 97 -15
347 10 434 44 157 137 281 254 338 64 32 71 33 187 33 111 0 125 -2 180 -28
96 -45 166 -125 196 -225 12 -43 12 -43 53 -37 23 3 94 9 160 15 65 5 121 11
123 14 3 2 -5 39 -17 82 -62 229 -220 388 -450 454 -97 28 -312 36 -414 15z"/>
<path d="M6265 2946 l0 -876 173 0 172 0 0 335 0 336 126 -3 125 -3 178 -330
177 -330 197 -5 c108 -3 197 -4 197 -3 0 4 -368 630 -396 675 -13 21 -24 40
-24 42 0 2 17 10 38 17 162 52 278 178 311 337 16 76 14 228 -4 297 -47 179
-184 308 -386 361 -54 15 -130 18 -474 21 l-410 4 0 -875z m769 574 c115 -44
173 -140 164 -269 -6 -75 -23 -114 -70 -162 -65 -65 -100 -73 -320 -77 l-198
-4 0 272 0 272 183 -4 c158 -4 190 -8 241 -28z"/>
</g>
</svg>
